# xmcd
#
# Track frame offsets:
#	183
#	22808
#	34958
#	51145
#	63638
#	79998
#	95958
#	112775
#	130700
#	148173
#	157950
#	178570
#	201570
#	218838
#	231523
#	251608
#	268638
#	281933
#	298728
#	316195
#
# Disc length: 4351 seconds
#
# Revision: 0
# Processed by: cddbd v1.5.2PL0 Copyright (c) Steve Scherf et al.
# Submitted via: audiograbber 1.83.01
#
DISCID=3610fd14
DTITLE=Fischer Z - Going Red For A Salad (The UA Years)
DYEAR=1990
DGENRE=New Wave
TTITLE0=Fischer Z - So Long
TTITLE1=Fischer Z - Acrobats
TTITLE2=Fischer Z - The Worker
TTITLE3=Fischer Z - Wax Dolls
TTITLE4=Fischer Z - Remember Russia
TTITLE5=Fischer Z - Going Deaf For A Living
TTITLE6=Fischer Z - Room Service
TTITLE7=Fischer Z - Pretty Paracetamol
TTITLE8=Fischer Z - Marliese
TTITLE9=Fischer Z - You'll Never Find Brian Here
TTITLE10=Fischer Z - Berlin
TTITLE11=Fischer Z - Battalions Of Strangers
TTITLE12=Fischer Z - Bathroom Scenario
TTITLE13=Fischer Z - Wristcutters Lullaby
TTITLE14=Fischer Z - Crazy Girl
TTITLE15=John Watts - One Voice
TTITLE16=John Watts - Involuntary Movement
TTITLE17=John Watts - Mayday Mayday
TTITLE18=John Watts - I Smelt Roses (In The Underground)
TTITLE19=Fischer Z - Limbo
EXTD=
EXTT0=
EXTT1=
EXTT2=
EXTT3=
EXTT4=
EXTT5=
EXTT6=
EXTT7=
EXTT8=
EXTT9=
EXTT10=
EXTT11=
EXTT12=
EXTT13=
EXTT14=
EXTT15=
EXTT16=
EXTT17=
EXTT18=
EXTT19=
PLAYORDER=
